<svg width="3000" height="1555" viewBox="0 0 3000 1555" fill="none" xmlns="http://www.w3.org/2000/svg">
<g clip-path="url(#clip0_798_13)">
<path d="M664.947 801.667C585.516 823.941 505.199 835.809 425.707 851.591C308.852 874.793 196.066 909.075 93.5754 971.861C68.4176 987.273 43.8326 1003.54 20.8303 1022.09C19.2221 1023.39 17.6105 1024.72 15.8514 1025.78C11.2629 1028.57 6.15443 1031.11 1.92666 1025.97C-2.56125 1020.52 1.69397 1016.42 5.5214 1012.76C25.3445 993.805 45.1514 974.85 67.3789 958.616C150.757 897.727 244.371 861.351 344.877 840.28C447.975 818.666 552.123 802.622 654.945 779.454C750.666 757.887 827.477 709.398 884.117 629.095C897.553 610.046 912.186 592.039 929.635 576.323C935.693 570.867 940.422 564.576 949.342 569.503C957.512 574.018 957.873 581.107 956.186 589.607C947.098 635.423 943.047 681.709 945.498 728.398C946.475 746.986 949.24 765.431 956.102 782.944C957.754 787.162 959.141 791.96 965.689 793.173C974.264 787.84 979.283 778.74 984.404 769.916C1001.59 740.303 1013.82 708.33 1028.09 677.324C1031.69 669.488 1034.07 659.515 1045.6 660.603C1057.61 661.738 1058.52 671.645 1060.56 681.031C1065.6 704.13 1070.36 727.414 1082.62 749.489C1090.91 744.153 1092.7 736.322 1094.86 729.334C1110.38 679.201 1118.38 627.761 1120.09 575.364C1120.4 565.864 1121.02 557.247 1132.4 555.403C1143.25 553.642 1146.21 562.174 1149.65 569.831C1177.63 632.096 1218 640.052 1267.34 592.82C1280.13 580.583 1290.63 566.797 1296.86 549.702C1302.9 533.111 1311.44 517.641 1324.93 505.592C1349.83 483.359 1382.73 484.252 1405.93 507.631C1412.2 513.951 1414.44 521.003 1408.53 528.28C1403.09 534.977 1396.3 534.213 1389.06 530.077C1359.09 512.951 1344.89 516.672 1329.04 547.835C1310.19 584.899 1303.04 624.53 1309.28 667.417C1316.19 656.331 1323.59 645.516 1329.92 634.104C1343.21 610.123 1356.05 585.883 1368.85 561.63C1372.92 553.914 1377.13 547.213 1387.48 548.509C1397.62 549.775 1399.08 557.995 1400.71 565.391C1406.39 591.181 1413.08 616.624 1423.2 641.09C1427.58 651.688 1432.66 661.865 1440.49 670.318C1450.64 681.272 1458.92 681.94 1469.59 671.285C1497.9 643.012 1514.54 608.726 1520.77 569.185C1524.68 544.393 1532.13 520.812 1548.24 500.917C1557 490.095 1567.36 481.319 1582.63 484.572C1599.17 488.098 1605.74 501.009 1608.83 515.895C1610.72 525.01 1610.77 534.508 1608.32 543.621C1606.46 550.589 1602.17 556.12 1594.17 555.565C1585.8 554.987 1581.33 549.366 1580.37 541.281C1579.37 532.839 1581.99 523.933 1577.65 514.926C1568.85 518.522 1563.54 524.51 1563.66 532.535C1563.93 550.288 1557.02 565.979 1550.86 581.732C1538.83 612.443 1544.69 642.135 1556.3 670.664C1566.6 695.993 1586.63 700.547 1608.88 684.546C1629.9 669.42 1643.71 647.949 1656.83 626.175C1680.92 586.198 1699.73 543.562 1719.25 501.284C1724.65 489.592 1724.2 476.895 1725.1 464.763C1729.12 410.657 1731.28 356.413 1735.28 302.307C1741.3 220.912 1747.27 139.434 1772.08 60.8613C1777.08 45.0153 1782.77 29.4524 1791.76 15.4272C1797.46 6.53964 1804.6 -1.88726 1816.66 0.371058C1828.65 2.61715 1832.17 12.2762 1834.08 23.2615C1839.55 54.7557 1831.63 85.022 1825.39 115.216C1813.45 172.996 1796.1 229.361 1776.64 285.001C1768.06 309.533 1761.55 333.997 1760.08 360.203C1755.8 436.543 1750.29 512.814 1746.56 589.419C1756.6 566.178 1764.84 542.412 1777.65 520.681C1784.27 509.446 1791.47 498.686 1801.88 490.679C1820.68 476.217 1839.58 482.171 1846.63 504.789C1851.78 521.316 1848.24 537.505 1843.64 553.547C1836.34 579.048 1820.96 599.773 1804.7 620.037C1800.42 625.366 1792.85 630.465 1799.46 638.622C1805.46 646.036 1813.07 648.939 1822.88 645.548C1840.94 639.3 1855.79 628.068 1869.49 615.43C1906.31 581.451 1935.69 541.669 1960.31 498.075C1971.97 477.434 1971.09 454.15 1976.91 432.319C1985.02 402.012 1995.21 372.981 2015.2 348.3C2029.18 331.024 2042.83 325.179 2054.51 330.879C2067.09 337.031 2071.52 354.079 2065.1 375.134C2054.92 408.43 2035 436.256 2013.85 463.175C1990.78 492.55 1985.53 551.625 2003.63 584.961C2016.48 608.636 2034.12 613.207 2055.98 597.354C2079.38 580.382 2095.98 556.962 2112.23 533.629C2130.88 506.864 2146.7 478.329 2161.62 449.303C2165.82 441.163 2166.46 434.814 2160.9 426.607C2148.4 408.193 2145.57 387.59 2150.33 365.753C2158.11 330.039 2173.03 298.181 2200.1 272.965C2207.97 265.628 2217.5 261.189 2228.52 266.022C2239.98 271.06 2243.11 280.928 2243.36 292.684C2243.67 307.269 2242.93 321.694 2238.73 335.689C2232.32 356.96 2225.53 378.113 2218.89 399.317C2216.91 405.646 2214.94 411.977 2212.62 419.465C2222.99 421.636 2229.63 416.052 2235.72 411.309C2251.23 399.246 2266.15 386.439 2281.19 373.796C2289.43 366.865 2298.13 360.651 2309.12 366.677C2319.77 372.497 2318.57 383.46 2317.44 393.061C2313.34 427.418 2308.46 461.683 2303.98 495.996C2298.42 538.694 2297.32 581.582 2299.38 624.541C2299.73 632.129 2300.94 639.968 2306.72 646.62C2316.62 646.358 2320.31 638.07 2324.82 631.725C2357.83 585.301 2379.28 533.117 2398.73 480.108C2409.06 451.978 2417.87 423.278 2426.86 394.681C2429.96 384.839 2434.18 376.163 2445.84 379.399C2457.27 382.569 2457.6 391.956 2454.45 402.134C2431.76 475.898 2406.33 548.573 2369.06 616.497C2359.82 633.311 2349.14 649.328 2335.53 662.952C2310.64 687.855 2284.47 680.996 2275.35 647.148C2266.05 612.594 2268.46 577.399 2270.84 542.271C2273.52 502.576 2278.52 463.148 2284.47 423.829C2284.94 420.848 2284.53 417.738 2284.53 414.382C2276.6 413.687 2273.07 419.489 2268.42 423.015C2248.48 438.16 2228.42 452.937 2201.41 451.155C2191.05 450.471 2189.06 459.032 2185.59 465.648C2159.22 515.692 2130.9 564.367 2090.57 604.856C2082.89 612.563 2075.08 620.031 2065.41 625.399C2031.68 644.157 2000.04 635.407 1980.57 602.199C1971.21 586.243 1969.08 568.128 1964 549.157C1947.04 570.197 1930.94 590.091 1914.93 610.066C1900.89 627.589 1883.97 642 1865.98 655.177C1824.31 685.71 1795.43 681.688 1764.6 640.484C1755.86 669.379 1751.73 698.461 1746.64 727.306C1743.05 747.639 1740.23 768.104 1737.06 788.508C1735.57 798.098 1733.54 808.082 1721.11 807.51C1708.64 806.938 1706.88 796.928 1707.31 787.146C1709.83 729.811 1712.74 672.493 1715.29 615.157C1715.8 603.553 1715.36 591.908 1715.36 578.939C1704.18 599.384 1694.07 619.044 1682.86 638.05C1668.64 662.141 1653.54 685.841 1631.55 703.786C1589.52 738.078 1546.08 726.343 1526.64 675.796C1524.27 669.623 1522.39 663.262 1520.14 656.587C1510.73 668.398 1502.55 680.305 1492.74 690.664C1468.24 716.517 1437.11 714.452 1415.84 685.806C1398.29 662.194 1389.45 634.473 1380.11 605.317C1366.14 628.923 1353.04 651.457 1339.5 673.731C1335.5 680.313 1330.9 686.767 1325.52 692.231C1308.54 709.451 1289.27 704.868 1281.34 681.762C1275.07 663.506 1274.92 644.538 1277.66 624.659C1221.48 663.051 1185.35 659.125 1146.41 622.797C1143.43 641.371 1140.83 658.793 1137.82 676.146C1133.67 700.104 1128.38 723.804 1119.39 746.492C1116.15 754.677 1112.34 762.632 1106.45 769.346C1091.58 786.261 1074.55 785.597 1060.96 767.715C1051.54 755.328 1047.08 740.469 1040.05 723.46C1032.59 738.842 1026.59 751.768 1020.1 764.439C1011.12 781.944 1002.05 799.481 987.568 813.302C970.17 829.911 949.416 827.537 936.402 807.18C924.361 788.34 921.229 766.687 918.666 745.105C913.197 699.074 918.424 653.375 924.385 603.393C887.754 648.8 860.439 697.345 815.371 730.664C770.143 764.101 719.543 785.498 664.947 801.667ZM2183.13 352.1C2175 380.659 2175.31 394.544 2185.31 406.713C2197.32 373.184 2210.41 340.908 2211.68 305.331C2198.69 318.257 2190.06 333.27 2183.13 352.1ZM1774.5 609.789C1797.92 583.309 1821.25 556.794 1817.24 517.44C1795.03 544.643 1781.39 575.973 1774.5 609.789ZM1783.94 126.585C1780.63 148.354 1777.31 170.122 1773.99 191.89C1790.21 147.585 1800.12 101.955 1805.28 55.2207C1796.64 77.6304 1789.87 100.608 1783.94 126.585Z" fill="white"/>
<path d="M1308.82 1423.14C1304.93 1428.08 1302.06 1432.5 1298.35 1436.05C1282.52 1451.17 1263.4 1446.62 1255.01 1426.31C1249.34 1412.59 1251.37 1397.98 1249.94 1382.17C1238.95 1392.22 1229.75 1401.79 1219.4 1409.9C1180.4 1440.47 1146.04 1431.42 1126.68 1385.79C1123.06 1377.26 1120.23 1368.4 1115.82 1356.39C1109.13 1378.62 1103.1 1398.07 1097.44 1417.63C1093.27 1432.06 1089.2 1446.55 1081.99 1459.78C1068.94 1483.75 1047.1 1484.03 1032.82 1460.52C1021.83 1442.43 1018.89 1421.78 1014.85 1401.52C1013.89 1396.67 1012.89 1391.82 1011.23 1383.58C992.799 1419.94 979.479 1454.52 966.748 1489.35C960.891 1505.38 955.553 1521.59 949.67 1537.6C946.416 1546.46 942.633 1556.24 930.905 1554.87C920.143 1553.62 916.573 1545.07 914.54 1535.01C909.606 1510.6 914.086 1486.38 916.123 1462.35C920.442 1411.43 927.655 1360.8 940.217 1311.11C940.85 1308.61 941.602 1306.14 942.209 1303.63C944.444 1294.38 949.37 1288.39 959.745 1290.82C970.434 1293.32 971.284 1301.86 969.631 1310.48C965.745 1330.77 961.098 1350.9 957.034 1371.15C951.235 1400.03 948.612 1429.35 944.94 1461.78C959.809 1427.64 973.305 1396.35 987.079 1365.18C991.256 1355.73 995.834 1346.41 1000.9 1337.41C1005.08 1330 1010.65 1323.54 1020.62 1325.48C1030.27 1327.35 1033.85 1334.72 1035.22 1343.38C1038.52 1364.28 1041.29 1385.27 1044.83 1406.13C1046.86 1418.08 1048.81 1430.29 1056.84 1441.64C1063.93 1433.53 1065.41 1424.76 1067.94 1416.56C1076.78 1387.92 1083.75 1358.66 1095.37 1330.95C1100.68 1318.27 1105.43 1302.38 1123.08 1304C1140.95 1305.64 1139.82 1322.91 1142.64 1335.32C1145.72 1348.9 1147.42 1362.83 1153.18 1375.66C1164.8 1401.6 1177.46 1405.34 1199.79 1388.32C1229.61 1365.58 1250.73 1335.69 1266.16 1301.86C1273.9 1284.88 1280.53 1267.45 1293.46 1253.49C1318.26 1226.71 1349.94 1224.9 1377.55 1248.67C1384.31 1254.5 1389.45 1261.16 1383 1269.98C1376.85 1278.38 1369.45 1277 1361.24 1271.99C1334.42 1255.63 1320.34 1259.09 1304.76 1286.35C1285.8 1319.51 1280.15 1356.21 1277.89 1393.64C1277.59 1398.74 1278.42 1403.88 1282.59 1409.3C1303.83 1380.04 1319.31 1348.1 1336.09 1316.93C1339.04 1311.46 1341.67 1305.83 1344.65 1300.38C1348.15 1293.99 1353.24 1290.02 1361 1291.11C1369 1292.24 1372.01 1298.07 1373.49 1305.04C1379.07 1331.36 1385.46 1357.46 1396.08 1382.28C1399.53 1390.33 1403.39 1398.35 1408.18 1405.65C1421.3 1425.64 1432.75 1426.4 1448.86 1409.01C1466.4 1390.07 1476.37 1366.76 1487.16 1343.76C1504.72 1306.35 1506.36 1265.86 1511.58 1226.02C1512.11 1221.93 1512.18 1217.66 1513.5 1213.84C1516.18 1206.07 1521.92 1201.98 1530.3 1203.52C1538.16 1204.96 1541.59 1210.7 1541.18 1218.22C1540.69 1226.95 1539.81 1235.73 1538.23 1244.33C1535.35 1260.02 1536.43 1275.82 1537.16 1291.96C1543.03 1281.46 1547.61 1269.87 1555.69 1260.31C1574.36 1238.19 1597.77 1237.84 1616.26 1260C1626.61 1272.41 1633.76 1286.78 1641.11 1301.06C1646.78 1312.08 1652.34 1323.35 1659.6 1333.3C1672.2 1350.55 1684.05 1350.41 1696.36 1333C1703.8 1322.51 1709.51 1310.79 1715.86 1299.54C1735.13 1265.4 1740.98 1227.76 1744.38 1189.5C1744.66 1186.41 1744.57 1183.24 1745.22 1180.24C1747.17 1171.33 1751.6 1164.27 1761.92 1165.67C1772.23 1167.07 1775.02 1174.87 1774.03 1184.1C1771.3 1209.64 1768.31 1235.15 1765.17 1262.94C1772.5 1249.71 1777.87 1237.77 1785.22 1227.19C1804.79 1199.01 1832.1 1199.11 1852.35 1226.57C1865.36 1244.19 1873.46 1264.5 1884.09 1283.42C1902.8 1316.73 1916.92 1317.39 1936.37 1285.01C1950.8 1260.99 1961.49 1235.09 1970.78 1208.74C1975.2 1196.24 1981.62 1190.69 1995.59 1190.87C2019.38 1191.2 2041.6 1198.08 2063.73 1204.78C2159.2 1233.67 2250.16 1221.74 2339.36 1179.39C2428.64 1136.99 2515.57 1089.98 2604.14 1046.2C2681.19 1008.11 2761.12 979.885 2846.66 968.791C2892.54 962.842 2938.4 963.077 2984.3 968.422C2986.84 968.719 2989.32 969.648 2991.84 970.213C2996.04 971.155 3000.2 972.352 3000 977.769C2999.75 984.038 2994.98 984.921 2990.12 985.165C2974.63 985.939 2959.14 986.726 2943.65 987.281C2813.95 991.926 2694.57 1033.36 2579.1 1089.11C2509.71 1122.62 2442.4 1160.36 2372.05 1191.91C2326.64 1212.27 2280.16 1229.13 2230.73 1237.14C2176.04 1246 2122.68 1241.16 2070.22 1224.06C2052.03 1218.14 2033.77 1212.64 2015.08 1208.45C2005.43 1206.28 2001.17 1209.26 1997.97 1218.22C1987.85 1246.49 1975.69 1273.89 1960.88 1300.09C1932.98 1349.45 1894.03 1350.92 1863.35 1303.12C1854.72 1289.67 1848.79 1274.51 1840.41 1260.88C1834.73 1251.65 1831.7 1236.64 1818.52 1237.48C1806.72 1238.23 1803.77 1252.24 1799.2 1261.75C1785.01 1291.24 1776.41 1322.71 1768.2 1354.26C1763.65 1371.75 1759.53 1389.35 1755.17 1406.9C1753.17 1414.97 1749.5 1422.19 1739.94 1421.52C1729.98 1420.82 1725.9 1413.79 1725.87 1404.31C1725.81 1383.88 1725.85 1363.45 1725.85 1343.06C1725.12 1343.83 1724.02 1344.8 1723.14 1345.94C1691.95 1386.19 1659.93 1385.36 1632.02 1342.59C1621.03 1325.75 1613.12 1306.94 1602.61 1289.76C1589 1267.5 1582.45 1267.76 1570.62 1290.62C1548.05 1334.23 1538.2 1382.05 1525.98 1429.06C1524.42 1435.06 1523.48 1441.23 1521.69 1447.15C1519.4 1454.79 1514.51 1460.17 1505.93 1459.13C1497.5 1458.11 1493.4 1452.04 1493.19 1443.97C1492.82 1430.54 1493.09 1417.09 1493.09 1399.8C1486.43 1408.53 1481.61 1414.52 1477.14 1420.77C1470.43 1430.15 1462.61 1438.27 1452.57 1444.09C1432.5 1455.74 1414.04 1453.66 1397.41 1437.32C1377.95 1418.19 1369.3 1393.09 1360.13 1368.31C1358.05 1362.67 1357.88 1356.25 1352.64 1350.2C1337.96 1374.68 1323.71 1398.45 1308.82 1423.14Z" fill="white"/>
<path d="M922.865 1038.49H962.066V1061.6H892.938V938.695H922.865V1038.49Z" fill="white"/>
<path d="M1016.77 962.681V987.543H1056.85V1010.65H1016.77V1037.61H1062.1V1061.6H986.844V938.695H1062.1V962.681H1016.77Z" fill="white"/>
<path d="M1201.94 1061.6H1172.01L1121.96 985.791V1061.6H1092.03V938.695H1121.96L1172.01 1014.85V938.695H1201.94V1061.6Z" fill="white"/>
<path d="M1310.61 1039.89H1264.75L1257.4 1061.6H1226.08L1270.53 938.695H1305.18L1349.63 1061.6H1317.96L1310.61 1039.89ZM1302.91 1016.78L1287.68 971.786L1272.63 1016.78H1302.91Z" fill="white"/>
<path d="M1515.23 1061.6L1503.86 1050.57C1492.54 1059.21 1479.01 1063.53 1463.26 1063.53C1453.8 1063.53 1445.58 1062.01 1438.58 1058.97C1431.58 1055.82 1426.15 1051.45 1422.3 1045.84C1418.57 1040.12 1416.7 1033.47 1416.7 1025.89C1416.7 1018.18 1418.74 1011.24 1422.83 1005.05C1427.03 998.747 1433.27 993.611 1441.55 989.644C1438.52 985.908 1436.36 982.349 1435.08 978.964C1433.79 975.463 1433.15 971.669 1433.15 967.584C1433.15 961.747 1434.67 956.438 1437.7 951.652C1440.74 946.867 1445.11 943.132 1450.83 940.446C1456.66 937.647 1463.55 936.246 1471.48 936.246C1479.53 936.246 1486.36 937.703 1491.96 940.622C1497.56 943.541 1501.76 947.45 1504.56 952.353C1507.36 957.254 1508.64 962.623 1508.41 968.46H1480.23C1480.35 965.309 1479.53 962.916 1477.78 961.28C1476.15 959.53 1473.93 958.655 1471.13 958.655C1468.33 958.655 1466 959.471 1464.13 961.107C1462.26 962.74 1461.33 964.842 1461.33 967.409C1461.33 969.86 1462.09 972.427 1463.61 975.111C1465.24 977.797 1467.75 980.89 1471.13 984.391L1501.06 1013.63C1501.29 1013.04 1501.58 1012.35 1501.93 1011.53C1502.4 1010.71 1502.87 1009.78 1503.33 1008.73L1509.81 997.698H1539.73L1531.33 1012.93C1528.18 1019.82 1524.57 1026.35 1520.48 1032.54L1550.06 1061.6H1515.23ZM1464.65 1039.36C1472.47 1039.36 1479.41 1037.15 1485.48 1032.71L1458.18 1006.28C1449.78 1010.6 1445.58 1016.43 1445.58 1023.78C1445.58 1028.22 1447.27 1031.95 1450.65 1034.99C1454.15 1037.91 1458.82 1039.36 1464.65 1039.36Z" fill="white"/>
<path d="M1663.42 1062.83C1654.44 1062.83 1646.39 1061.37 1639.27 1058.45C1632.15 1055.53 1626.44 1051.21 1622.12 1045.49C1617.92 1039.77 1615.7 1032.89 1615.47 1024.83H1647.32C1647.79 1029.39 1649.36 1032.89 1652.05 1035.34C1654.73 1037.67 1658.23 1038.84 1662.54 1038.84C1666.98 1038.84 1670.48 1037.85 1673.05 1035.86C1675.61 1033.76 1676.9 1030.9 1676.9 1027.29C1676.9 1024.25 1675.85 1021.74 1673.75 1019.76C1671.76 1017.77 1669.25 1016.14 1666.22 1014.85C1663.3 1013.57 1659.1 1012.11 1653.62 1010.48C1645.69 1008.03 1639.21 1005.58 1634.19 1003.12C1629.18 1000.67 1624.86 997.055 1621.24 992.269C1617.63 987.485 1615.82 981.239 1615.82 973.537C1615.82 962.099 1619.96 953.169 1628.24 946.75C1636.53 940.214 1647.32 936.945 1660.62 936.945C1674.15 936.945 1685.06 940.214 1693.35 946.75C1701.63 953.169 1706.06 962.155 1706.65 973.711H1674.27C1674.04 969.743 1672.58 966.651 1669.9 964.433C1667.21 962.099 1663.77 960.931 1659.57 960.931C1655.95 960.931 1653.04 961.923 1650.82 963.908C1648.6 965.775 1647.49 968.518 1647.49 972.136C1647.49 976.104 1649.36 979.198 1653.1 981.415C1656.83 983.632 1662.66 986.026 1670.6 988.592C1678.53 991.279 1684.95 993.845 1689.85 996.297C1694.86 998.747 1699.18 1002.31 1702.8 1006.98C1706.41 1011.64 1708.22 1017.65 1708.22 1025.01C1708.22 1032.01 1706.41 1038.37 1702.8 1044.09C1699.3 1049.81 1694.16 1054.36 1687.4 1057.75C1680.63 1061.13 1672.64 1062.83 1663.42 1062.83Z" fill="white"/>
<path d="M1813.62 1039.89H1767.77L1760.42 1061.6H1729.09L1773.55 938.695H1808.2L1852.65 1061.6H1820.97L1813.62 1039.89ZM1805.92 1016.78L1790.7 971.786L1775.65 1016.78H1805.92Z" fill="white"/>
<path d="M1921.13 1062.83C1912.15 1062.83 1904.1 1061.37 1896.98 1058.45C1889.86 1055.53 1884.15 1051.21 1879.83 1045.49C1875.63 1039.77 1873.41 1032.89 1873.18 1024.83H1905.03C1905.5 1029.39 1907.07 1032.89 1909.76 1035.34C1912.44 1037.67 1915.94 1038.84 1920.26 1038.84C1924.69 1038.84 1928.19 1037.85 1930.76 1035.86C1933.32 1033.76 1934.61 1030.9 1934.61 1027.29C1934.61 1024.25 1933.56 1021.74 1931.46 1019.76C1929.47 1017.77 1926.97 1016.14 1923.93 1014.85C1921.02 1013.57 1916.82 1012.11 1911.33 1010.48C1903.4 1008.03 1896.92 1005.58 1891.91 1003.12C1886.89 1000.67 1882.57 997.055 1878.96 992.269C1875.34 987.485 1873.53 981.239 1873.53 973.537C1873.53 962.099 1877.67 953.169 1885.95 946.75C1894.24 940.214 1905.03 936.945 1918.33 936.945C1931.87 936.945 1942.78 940.214 1951.06 946.75C1959.34 953.169 1963.77 962.155 1964.36 973.711H1931.98C1931.75 969.743 1930.29 966.651 1927.61 964.433C1924.92 962.099 1921.48 960.931 1917.28 960.931C1913.67 960.931 1910.75 961.923 1908.53 963.908C1906.31 965.775 1905.21 968.518 1905.21 972.136C1905.21 976.104 1907.07 979.198 1910.81 981.415C1914.54 983.632 1920.38 986.026 1928.31 988.592C1936.24 991.279 1942.66 993.845 1947.56 996.297C1952.58 998.747 1956.9 1002.31 1960.51 1006.98C1964.12 1011.64 1965.94 1017.65 1965.94 1025.01C1965.94 1032.01 1964.12 1038.37 1960.51 1044.09C1957.01 1049.81 1951.88 1054.36 1945.11 1057.75C1938.34 1061.13 1930.35 1062.83 1921.13 1062.83Z" fill="white"/>
<path d="M1989.77 999.975C1989.77 987.836 1992.4 977.039 1997.66 967.586C2002.91 958.014 2010.2 950.604 2019.53 945.351C2028.98 939.983 2039.65 937.297 2051.56 937.297C2066.13 937.297 2078.61 941.149 2089 948.852C2099.39 956.557 2106.33 967.061 2109.82 980.366H2076.93C2074.47 975.23 2070.98 971.321 2066.43 968.637C2061.99 965.951 2056.91 964.609 2051.21 964.609C2041.99 964.609 2034.51 967.819 2028.81 974.238C2023.09 980.657 2020.23 989.237 2020.23 999.975C2020.23 1010.71 2023.09 1019.29 2028.81 1025.71C2034.51 1032.13 2041.99 1035.34 2051.21 1035.34C2056.91 1035.34 2061.99 1034 2066.43 1031.31C2070.98 1028.63 2074.47 1024.72 2076.93 1019.58H2109.82C2106.33 1032.89 2099.39 1043.39 2089 1051.1C2078.61 1058.68 2066.13 1062.48 2051.56 1062.48C2039.65 1062.48 2028.98 1059.85 2019.53 1054.6C2010.2 1049.23 2002.91 1041.82 1997.66 1032.36C1992.4 1022.91 1989.77 1012.11 1989.77 999.975Z" fill="white"/>
<path d="M2245.06 938.695V1061.6H2215.14V1011H2168.6V1061.6H2138.66V938.695H2168.6V986.842H2215.14V938.695H2245.06Z" fill="white"/>
<path d="M2353.66 1039.89H2307.8L2300.45 1061.6H2269.12L2313.58 938.695H2348.23L2392.68 1061.6H2361L2353.66 1039.89ZM2345.96 1016.78L2330.73 971.786L2315.67 1016.78H2345.96Z" fill="white"/>
</g>
<defs>
<clipPath id="clip0_798_13">
<rect width="3000" height="1555" fill="white"/>
</clipPath>
</defs>
</svg>
